<svg width="545" height="509" viewBox="0 0 545 509" fill="none" xmlns="http://www.w3.org/2000/svg">
<g filter="url(#filter0_d_3_55)">
<path d="M494.766 293.567C492.847 303.998 490.131 316.933 486.194 326.729C486.14 326.866 486.086 327.003 486.031 327.14C484.438 331.126 482.639 335.139 480.29 339.87C479.99 340.474 479.678 341.091 479.358 341.72C476.503 347.295 472.84 354.058 467.183 362.827C448.184 392.286 427.85 411.17 421.61 417.007C408.922 428.589 393.78 439.542 370.955 449.982C368.865 450.925 366.696 451.86 364.475 452.775C362.67 453.519 360.97 453.616 360.693 453.024C360.416 452.431 361.649 451.383 363.432 450.65C365.584 449.765 367.682 448.861 369.703 447.952C369.712 447.948 369.721 447.944 369.731 447.939C392.451 437.569 407.081 426.942 419.384 415.817C425.709 409.944 446.404 390.88 465.561 360.96C471.186 352.178 474.818 345.398 477.637 339.835C477.944 339.225 478.242 338.629 478.528 338.047C478.535 338.033 478.542 338.02 478.549 338.006C480.864 333.293 482.554 329.469 484.049 325.7C484.08 325.62 484.111 325.539 484.143 325.459C488.056 315.655 490.613 303.083 492.453 293.081C492.815 291.171 493.599 289.71 494.24 289.832C494.88 289.955 495.131 291.634 494.766 293.567ZM76.8817 173.093C79.9705 162.879 86.3124 150.063 93.2057 139.618C100.083 129.038 107.597 120.438 111.285 116.58C114.886 112.794 118.743 108.496 123.547 103.557C124.649 102.425 125.801 101.26 127.007 100.071C130.989 96.1412 135.571 91.9153 140.891 87.6357C160.526 72.0106 175.032 64.3432 185.335 58.9996C187.472 57.9158 189.471 56.9387 191.353 56.0497C191.356 56.0482 191.36 56.0467 191.363 56.0453C198.485 52.6944 203.944 50.5197 209.112 48.9342C218.298 46.1612 225.975 44.3761 235.291 43.0957C248.138 41.2144 266.295 38.9541 278.291 38.026C278.949 37.9673 279.622 37.9086 280.305 37.8539C281.337 37.7711 282.4 37.6933 283.5 37.6221C291.679 37.1243 301.732 36.8083 315.951 38.4063C329.332 39.9527 340.777 42.9043 350.615 46.1805C353.444 47.1239 356.114 48.0889 358.654 49.0569C365.094 51.5126 370.717 53.99 375.997 56.3854C408.671 71.629 423.886 86.7436 433.009 95.8088C439.944 103.024 443.177 107.615 445.513 110.884C446.213 111.878 446.823 112.761 447.406 113.583C452.587 120.919 457.276 127.616 462.354 136.013C463.476 137.876 464.614 139.831 465.764 141.896C469.599 148.797 472.428 153.932 474.679 157.951C475.661 159.711 476.527 161.266 477.329 162.737C477.344 162.764 477.359 162.791 477.374 162.818C477.486 163.023 477.595 163.227 477.704 163.429C477.787 163.582 477.871 163.733 477.953 163.886C477.992 163.943 478.025 163.995 478.051 164.033C478.071 164.063 478.087 164.087 478.097 164.102C478.099 164.105 478.101 164.108 478.104 164.111C478.284 164.388 478.42 164.637 478.448 164.688C478.497 164.776 478.537 164.857 478.559 164.897C478.671 165.112 478.807 165.393 478.897 165.58C479.128 166.061 479.525 166.899 480.118 168.205C480.656 169.332 481.189 170.409 481.842 171.764C481.884 171.85 481.925 171.934 481.966 172.02C482.599 173.338 483.328 174.888 484.189 176.862C484.974 178.659 485.166 180.514 484.648 180.983C484.129 181.452 483.113 180.372 482.345 178.594C481.549 176.751 480.88 175.311 480.26 174.003C480.22 173.92 480.181 173.837 480.141 173.754C479.494 172.395 478.863 171.101 478.204 169.709C477.983 169.242 477.757 168.761 477.546 168.311C477.152 167.508 476.685 166.604 476.113 165.531C475.998 165.315 475.88 165.092 475.758 164.866C474.976 163.413 474.044 161.721 472.994 159.823C470.531 155.385 467.448 149.764 463.291 142.348C462.198 140.404 461.104 138.538 460.009 136.732C454.945 128.404 449.949 121.297 444.441 113.634C443.683 112.584 442.965 111.567 442.185 110.486C439.854 107.298 437.083 103.443 430.718 96.8661C422.077 88.371 407.426 73.7251 375.316 58.674C369.84 56.177 363.9 53.5695 357.419 51.1149C354.953 50.1812 352.403 49.2696 349.775 48.3945C340.193 45.2092 329.23 42.3853 316.452 40.8611C301.837 39.1731 291.796 39.5317 283.5 40.0419C282.951 40.078 282.411 40.1159 281.878 40.1552C281.581 40.1777 281.284 40.2009 280.987 40.2247C280.618 40.2534 280.253 40.2829 279.891 40.3128C267.232 41.2091 248.121 43.5548 234.094 45.7115C225.283 46.9897 218.025 48.6982 209.001 51.4591C204.551 52.8491 199.932 54.665 193.011 57.8863C191.074 58.7935 188.959 59.8149 186.625 60.9953C176.244 66.3634 161.675 74.0665 142.06 89.7355C136.971 93.8464 132.634 97.8441 128.714 101.707C127.497 102.908 126.315 104.1 125.169 105.278C120.393 110.189 116.137 114.935 112.05 119.295C108.683 122.866 101.521 131.124 94.9232 141.322C88.225 151.541 82.4998 163.289 79.7352 172.151C79.4444 173.07 79.1557 173.997 78.8743 174.926C76.4355 182.931 74.5005 191.209 73.8376 198.036C73.2684 213.5 70.8099 233.977 71.0534 255.5C71.1236 277.22 74.1237 299.609 79.132 316.781C79.26 317.229 79.3894 317.676 79.5203 318.123C91.2167 357.705 110.803 381.645 116.971 389.488C117.27 389.857 117.543 390.192 117.79 390.493C118.009 390.761 118.21 391.002 118.386 391.216C121.03 394.416 123.51 397.128 126.174 399.901C126.319 400.053 126.465 400.204 126.611 400.355C129.438 403.275 132.468 406.271 136.1 409.757C149.646 422.703 162.279 431.471 173.606 438.196C175.706 439.437 177.769 440.61 179.801 441.72C179.807 441.724 179.813 441.727 179.819 441.73C188.73 446.591 196.959 450.296 204.882 453.451C219.371 459.156 229.689 461.542 237.67 463.171C240.192 463.673 242.507 464.082 244.703 464.437C249.461 465.202 253.627 465.725 257.933 466.212C266.041 467.119 273.542 467.404 280.932 467.338C281.592 467.332 282.252 467.324 282.913 467.311C283.108 467.308 283.304 467.304 283.5 467.3C291.341 467.131 299.039 466.576 307.137 465.676C309.068 465.461 310.729 465.779 310.855 466.422C310.978 467.063 309.501 467.79 307.546 468.01C299.394 468.92 291.625 469.496 283.501 469.671C283.5 469.671 283.5 469.671 283.5 469.671C282.829 469.685 282.155 469.698 281.481 469.706C274.023 469.791 266.303 469.516 257.953 468.593C253.751 468.123 249.779 467.635 245.055 466.893C242.804 466.537 240.406 466.124 237.713 465.595C229.512 463.942 218.94 461.517 204.142 455.702C196.226 452.555 188.005 448.869 178.993 443.974C176.923 442.848 174.814 441.656 172.663 440.389C161.173 433.589 148.321 424.696 134.545 411.542C131.073 408.213 128.161 405.35 125.307 402.419C125.148 402.254 124.988 402.089 124.829 401.923C122.153 399.151 119.495 396.267 116.668 392.85C116.291 392.394 115.812 391.81 115.239 391.103C108.989 383.168 89.0812 358.879 77.2274 318.702C77.1915 318.578 77.1558 318.454 77.1202 318.33C69.5637 291.437 69.1435 275.545 67.9287 263.765C67.6707 260.802 67.5152 258.055 67.4288 255.5C67.247 250.011 67.3681 245.555 67.5772 241.604C67.6361 240.504 67.6999 239.466 67.7685 238.478C68.0674 234.219 68.4099 230.845 68.6779 227.469C69.5312 217.271 70.1967 209.892 70.9233 200.825C71.5575 193.1 73.6633 183.878 76.0316 175.912C76.0351 175.9 76.0387 175.888 76.0422 175.876C76.3212 174.93 76.6027 174 76.8817 173.093ZM494.284 203.481C494.74 205.414 494.562 207.093 493.923 207.219C493.281 207.343 492.424 205.884 491.973 203.975C490.9 199.419 489.67 194.88 488.297 190.402C487.72 188.519 487.727 186.849 488.351 186.657C488.975 186.467 489.985 187.848 490.57 189.757C491.957 194.284 493.2 198.875 494.284 203.481ZM62.8025 177.115C63.3754 175.102 64.5002 173.284 65.2659 173.068C66.0315 172.854 66.1436 174.298 65.5599 176.288C65.2525 177.34 64.7622 179.074 64.1492 181.422C60.9905 193.335 54.7885 221.643 56.3956 255.5C56.9888 269.373 58.7858 284.08 61.9372 298.719C62.8448 302.942 63.7898 306.734 64.7595 310.284C69.2434 325.416 73.8993 337.374 87.9562 363.785C125.824 433.72 203.029 481.19 283.5 480.812C330.463 481.195 377.469 465.932 414.909 437.803C444.174 415.952 468.219 387.454 484.424 354.79C499.868 328.181 510.091 272.523 508.906 259.221C508.96 257.151 509.501 255.48 510.154 255.5C510.805 255.521 511.321 257.243 511.267 259.336C512.452 272.675 502.191 328.741 486.686 355.552C470.386 388.523 446.194 417.299 416.728 439.403C378.85 467.988 331.343 483.947 283.5 484.063C201.892 485.38 122.046 437.881 83.3027 366.173C69.0461 339.304 67.1903 326.687 62.642 311.525C61.6496 307.932 60.6786 304.09 59.7404 299.778C56.4673 284.761 54.6107 269.68 54.0033 255.5C52.4336 222.332 58.2612 194.58 61.3567 182.526C61.9775 180.073 62.4813 178.241 62.8025 177.115ZM115.733 93.5886C131.951 76.0709 159.612 55.4826 186.846 43.7228C200.027 37.831 212.841 33.6898 223.208 30.9829C239.323 26.8391 249.816 25.9997 260.147 25.4618C260.258 25.4566 260.368 25.4515 260.478 25.4464C267.47 25.151 274.468 25.0869 283.5 25.3022C287.782 25.4123 292.439 25.5967 297.799 25.9516C314.595 26.9804 337.837 30.3083 360.212 37.8931C360.23 37.8993 360.247 37.9054 360.265 37.9115C382.53 45.2241 404.308 55.7667 418.333 66.0041C467.293 102.263 482.68 138.828 489.889 155.386C502.236 185.228 513.182 221.268 510.285 254.415C509.649 258.047 507.942 251.922 508.158 245.343C508.162 245.105 508.166 244.867 508.169 244.628C508.194 242.352 508.185 240.337 508.056 237.533C507.807 233.48 507.48 230.463 507.148 227.714C507.593 220.291 495.591 171.185 487.155 155.055C480.184 139.488 463.169 105.693 415.161 70.1631C401.772 60.4125 382.18 47.688 359.942 40.303C359.882 40.2826 359.821 40.2622 359.761 40.2418C337.795 32.7518 314.58 29.3442 297.676 28.3134C292.39 27.9624 287.764 27.7786 283.5 27.671C273.979 27.4487 266.675 27.5474 259.535 27.8811C259.434 27.8858 259.333 27.8905 259.232 27.8953C249.109 28.4666 239.197 29.3133 223.841 33.2587C213.354 35.995 200.53 40.1678 187.412 46.0618C160.602 57.7166 133.617 77.8265 117.667 94.9865C116.208 96.5144 114.61 97.4712 114.068 97.095C113.529 96.7187 114.261 95.1366 115.733 93.5886ZM105.504 82.9883C149.673 33.2272 217.995 5.06507 283.5 7.95743C288.434 8.13046 293.284 8.45589 298.153 8.93385C316.39 9.98201 341.783 14.2173 365.71 23.0075C365.98 23.106 366.25 23.205 366.519 23.3044C390.24 31.86 412.011 44.6277 426.484 55.2085C478.174 93.5447 495.623 131.746 503.352 149.416C510.115 166.587 511.425 171.492 513.928 178.612C513.993 178.807 514.057 179.003 514.12 179.199C514.126 179.211 514.133 179.223 514.139 179.236C514.249 179.472 514.333 179.673 514.375 179.777C514.461 179.989 514.524 180.164 514.548 180.23C514.602 180.382 514.644 180.51 514.659 180.555C514.722 180.742 514.79 180.956 514.833 181.094C515.242 182.385 516.422 186.413 517.223 189.654C518.049 192.972 518.531 195.373 519.001 197.887C519.048 198.142 519.095 198.397 519.141 198.652C519.554 200.926 519.985 203.408 520.562 206.989C520.909 209.159 520.603 210.805 519.919 210.659C519.234 210.51 518.429 208.657 518.075 206.504C517.459 202.773 516.992 200.165 516.571 197.906C516.524 197.655 516.477 197.405 516.429 197.154C515.973 194.777 515.534 192.666 514.804 189.759C513.687 185.564 512.713 182.486 511.788 179.678C509.231 172.377 507.704 166.768 500.582 148.996C493.148 132.504 476.592 95.4332 425.129 57.1434C410.77 46.6413 389.18 33.9872 365.707 25.5226C365.433 25.4224 365.158 25.3227 364.883 25.2235C341.173 16.5168 316.061 12.3325 298.039 11.2932C293.185 10.985 288.374 10.828 283.5 10.8169C217.918 10.5145 154.479 38.0902 107.454 84.3707C98.4143 93.8066 90.8628 103.088 84.4171 112.072C65.5709 138.615 55.6342 162.121 50.0725 185.138C48.9243 190.186 45.1733 203.337 42.8598 222.787C42.1899 228.492 41.6551 234.739 41.3803 241.544C41.2019 245.983 41.1353 250.609 41.216 255.5C41.4377 268.868 42.7814 283.786 46.0327 299.696C46.9586 304.222 47.9284 308.288 48.9298 312.106C53.5652 328.322 56.9171 341.481 71.8061 370.127C88.964 406.412 138.014 453.998 170.641 469.413C186.414 477.907 195.948 481.482 202.616 484.097C204.48 484.807 206.128 485.415 207.648 485.959C211.63 487.376 214.72 488.398 218.846 489.6C241.774 496.059 260.169 498.353 283.5 498.2C290.483 498.101 297.85 497.702 305.92 496.831C308.108 496.595 310.093 496.878 310.332 497.507C310.575 498.135 308.95 498.882 306.741 499.126C298.383 500.048 290.743 500.47 283.5 500.57C260.065 500.723 241.314 498.407 218.025 491.824C213.678 490.555 210.334 489.439 206.25 487.972C204.739 487.427 203.133 486.831 201.35 486.147C194.731 483.537 185.21 479.956 169.372 471.413C136.494 455.853 87.0629 407.864 69.7746 371.342C54.8752 342.704 51.5225 329.68 46.8132 313.377C45.7899 309.521 44.7903 305.388 43.836 300.785C40.4574 284.469 39.069 269.166 38.8447 255.5C38.7673 250.773 38.8267 246.285 38.9898 241.992C39.2522 235.124 39.7754 228.838 40.4359 223.094C42.7974 203.054 46.4008 190.589 47.3406 186.204C52.9619 162.111 63.4722 137.34 82.7438 110.345C89.1958 101.384 96.6827 92.2212 105.504 82.9883ZM424.322 453.413C422.532 454.731 420.655 455.407 420.158 454.957C419.661 454.507 420.717 453.116 422.491 451.817C431.854 444.936 438.128 439.408 442.931 435.007C451.756 426.783 455.696 422.484 461.594 416.064C476.731 399.39 488.844 381.102 497.67 363.646C512.466 334.573 518.05 308.236 520.411 294.469C520.787 292.292 521.577 290.629 522.22 290.744C522.861 290.861 523.109 292.73 522.729 294.93C520.355 308.734 514.772 335.133 499.932 364.407C491.033 382.068 478.793 400.619 463.42 417.57C457.646 423.86 453.899 427.967 445.217 436.121C440.388 440.577 434.013 446.256 424.322 453.413Z" fill="#FFF8F0"/>
</g>
<g filter="url(#filter1_d_3_55)">
<path d="M494.766 286.567C492.847 296.998 490.131 309.933 486.194 319.729C486.14 319.866 486.086 320.003 486.031 320.14C484.438 324.126 482.639 328.139 480.29 332.87C479.99 333.474 479.678 334.091 479.358 334.72C476.503 340.295 472.84 347.058 467.183 355.827C448.184 385.286 427.85 404.17 421.61 410.007C408.922 421.589 393.78 432.542 370.955 442.982C368.865 443.925 366.696 444.86 364.475 445.775C362.67 446.519 360.97 446.616 360.693 446.024C360.416 445.431 361.649 444.383 363.432 443.65C365.584 442.765 367.682 441.861 369.703 440.952C369.712 440.948 369.721 440.944 369.731 440.939C392.451 430.569 407.081 419.942 419.384 408.817C425.709 402.944 446.404 383.88 465.561 353.96C471.186 345.178 474.818 338.398 477.637 332.835C477.944 332.225 478.242 331.629 478.528 331.047C478.535 331.033 478.542 331.02 478.549 331.006C480.864 326.293 482.554 322.469 484.049 318.7C484.08 318.62 484.111 318.539 484.143 318.459C488.056 308.655 490.613 296.083 492.453 286.081C492.815 284.171 493.599 282.71 494.24 282.832C494.88 282.955 495.131 284.634 494.766 286.567ZM76.8817 166.093C79.9705 155.879 86.3124 143.063 93.2057 132.618C100.083 122.038 107.597 113.438 111.285 109.58C114.886 105.794 118.743 101.496 123.547 96.5566C124.649 95.4248 125.801 94.2604 127.007 93.0705C130.989 89.1412 135.571 84.9153 140.891 80.6357C160.526 65.0106 175.032 57.3432 185.335 51.9996C187.472 50.9158 189.471 49.9387 191.353 49.0497C191.356 49.0482 191.36 49.0467 191.363 49.0453C198.485 45.6944 203.944 43.5197 209.112 41.9342C218.298 39.1612 225.975 37.3761 235.291 36.0957C248.138 34.2144 266.295 31.9541 278.291 31.026C278.949 30.9673 279.622 30.9086 280.305 30.8539C281.337 30.7711 282.4 30.6933 283.5 30.6221C291.679 30.1243 301.732 29.8083 315.951 31.4063C329.332 32.9527 340.777 35.9043 350.615 39.1805C353.444 40.1239 356.114 41.0889 358.654 42.0569C365.094 44.5126 370.717 46.99 375.997 49.3854C408.671 64.629 423.886 79.7436 433.009 88.8088C439.944 96.0241 443.177 100.615 445.513 103.884C446.213 104.878 446.823 105.761 447.406 106.583C452.587 113.919 457.276 120.616 462.354 129.013C463.476 130.876 464.614 132.831 465.764 134.896C469.599 141.797 472.428 146.932 474.679 150.951C475.661 152.711 476.527 154.266 477.329 155.737C477.344 155.764 477.359 155.791 477.374 155.818C477.486 156.023 477.595 156.227 477.704 156.429C477.787 156.582 477.871 156.733 477.953 156.886C477.992 156.943 478.025 156.995 478.051 157.033C478.071 157.063 478.087 157.087 478.097 157.102C478.099 157.105 478.101 157.108 478.104 157.111C478.284 157.388 478.42 157.637 478.448 157.688C478.497 157.776 478.537 157.857 478.559 157.897C478.671 158.112 478.807 158.393 478.897 158.58C479.128 159.061 479.525 159.899 480.118 161.205C480.656 162.332 481.189 163.409 481.842 164.764C481.884 164.85 481.925 164.934 481.966 165.02C482.599 166.338 483.328 167.888 484.189 169.862C484.974 171.659 485.166 173.514 484.648 173.983C484.129 174.452 483.113 173.372 482.345 171.594C481.549 169.751 480.88 168.311 480.26 167.003C480.22 166.92 480.181 166.837 480.141 166.754C479.494 165.395 478.863 164.101 478.204 162.709C477.983 162.242 477.757 161.761 477.546 161.311C477.152 160.508 476.685 159.604 476.113 158.531C475.998 158.315 475.88 158.092 475.758 157.866C474.976 156.413 474.044 154.721 472.994 152.823C470.531 148.385 467.448 142.764 463.291 135.348C462.198 133.404 461.104 131.538 460.009 129.732C454.945 121.404 449.949 114.297 444.441 106.634C443.683 105.584 442.965 104.567 442.185 103.486C439.854 100.298 437.083 96.4432 430.718 89.8661C422.077 81.371 407.426 66.7251 375.316 51.674C369.84 49.177 363.9 46.5695 357.419 44.1149C354.953 43.1812 352.403 42.2696 349.775 41.3945C340.193 38.2092 329.23 35.3853 316.452 33.8611C301.837 32.1731 291.796 32.5317 283.5 33.0419C282.951 33.078 282.411 33.1159 281.878 33.1552C281.581 33.1777 281.284 33.2009 280.987 33.2247C280.618 33.2534 280.253 33.2829 279.891 33.3128C267.232 34.2091 248.121 36.5548 234.094 38.7115C225.283 39.9897 218.025 41.6982 209.001 44.4591C204.551 45.8491 199.932 47.665 193.011 50.8863C191.074 51.7935 188.959 52.8149 186.625 53.9953C176.244 59.3634 161.675 67.0665 142.06 82.7355C136.971 86.8464 132.634 90.8441 128.714 94.7074C127.497 95.908 126.315 97.0999 125.169 98.2784C120.393 103.189 116.137 107.935 112.05 112.295C108.683 115.866 101.521 124.124 94.9232 134.322C88.225 144.541 82.4998 156.289 79.7352 165.151C79.4444 166.07 79.1557 166.997 78.8743 167.926C76.4355 175.931 74.5005 184.209 73.8376 191.036C73.2684 206.5 70.8099 226.977 71.0534 248.5C71.1236 270.22 74.1237 292.609 79.132 309.781C79.26 310.229 79.3894 310.676 79.5203 311.123C91.2167 350.705 110.803 374.645 116.971 382.488C117.27 382.857 117.543 383.192 117.79 383.493C118.009 383.761 118.21 384.002 118.386 384.216C121.03 387.416 123.51 390.128 126.174 392.901C126.319 393.053 126.465 393.204 126.611 393.355C129.438 396.275 132.468 399.271 136.1 402.757C149.646 415.703 162.279 424.471 173.606 431.196C175.706 432.437 177.769 433.61 179.801 434.72C179.807 434.724 179.813 434.727 179.819 434.73C188.73 439.591 196.959 443.296 204.882 446.451C219.371 452.156 229.689 454.542 237.67 456.171C240.192 456.673 242.507 457.082 244.703 457.437C249.461 458.202 253.627 458.725 257.933 459.212C266.041 460.119 273.542 460.404 280.932 460.338C281.592 460.332 282.252 460.324 282.913 460.311C283.108 460.308 283.304 460.304 283.5 460.3C291.341 460.131 299.039 459.576 307.137 458.676C309.068 458.461 310.729 458.779 310.855 459.422C310.978 460.063 309.501 460.79 307.546 461.01C299.394 461.92 291.625 462.496 283.501 462.671C283.5 462.671 283.5 462.671 283.5 462.671C282.829 462.685 282.155 462.698 281.481 462.706C274.023 462.791 266.303 462.516 257.953 461.593C253.751 461.123 249.779 460.635 245.055 459.893C242.804 459.537 240.406 459.124 237.713 458.595C229.512 456.942 218.94 454.517 204.142 448.702C196.226 445.555 188.005 441.869 178.993 436.974C176.923 435.848 174.814 434.656 172.663 433.389C161.173 426.589 148.321 417.696 134.545 404.542C131.073 401.213 128.161 398.35 125.307 395.419C125.148 395.254 124.988 395.089 124.829 394.923C122.153 392.151 119.495 389.267 116.668 385.85C116.291 385.394 115.812 384.81 115.239 384.103C108.989 376.168 89.0812 351.879 77.2274 311.702C77.1915 311.578 77.1558 311.454 77.1202 311.33C69.5637 284.437 69.1435 268.545 67.9287 256.765C67.6707 253.802 67.5152 251.055 67.4288 248.5C67.247 243.011 67.3681 238.555 67.5772 234.604C67.6361 233.504 67.6999 232.466 67.7685 231.478C68.0674 227.219 68.4099 223.845 68.6779 220.469C69.5312 210.271 70.1967 202.892 70.9233 193.825C71.5575 186.1 73.6633 176.878 76.0316 168.912C76.0351 168.9 76.0387 168.888 76.0422 168.876C76.3212 167.93 76.6027 167 76.8817 166.093ZM494.284 196.481C494.74 198.414 494.562 200.093 493.923 200.219C493.281 200.343 492.424 198.884 491.973 196.975C490.9 192.419 489.67 187.88 488.297 183.402C487.72 181.519 487.727 179.849 488.351 179.657C488.975 179.467 489.985 180.848 490.57 182.757C491.957 187.284 493.2 191.875 494.284 196.481ZM62.8025 170.115C63.3754 168.102 64.5002 166.284 65.2659 166.068C66.0315 165.854 66.1436 167.298 65.5599 169.288C65.2525 170.34 64.7622 172.074 64.1492 174.422C60.9905 186.335 54.7885 214.643 56.3956 248.5C56.9888 262.373 58.7858 277.08 61.9372 291.719C62.8448 295.942 63.7898 299.734 64.7595 303.284C69.2434 318.416 73.8993 330.374 87.9562 356.785C125.824 426.72 203.029 474.19 283.5 473.812C330.463 474.195 377.469 458.932 414.909 430.803C444.174 408.952 468.219 380.454 484.424 347.79C499.868 321.181 510.091 265.523 508.906 252.221C508.96 250.151 509.501 248.48 510.154 248.5C510.805 248.521 511.321 250.243 511.267 252.336C512.452 265.675 502.191 321.741 486.686 348.552C470.386 381.523 446.194 410.299 416.728 432.403C378.85 460.988 331.343 476.947 283.5 477.063C201.892 478.38 122.046 430.881 83.3027 359.173C69.0461 332.304 67.1903 319.687 62.642 304.525C61.6496 300.932 60.6786 297.09 59.7404 292.778C56.4673 277.761 54.6107 262.68 54.0033 248.5C52.4336 215.332 58.2612 187.58 61.3567 175.526C61.9775 173.073 62.4813 171.241 62.8025 170.115ZM115.733 86.5886C131.951 69.0709 159.612 48.4826 186.846 36.7228C200.027 30.831 212.841 26.6898 223.208 23.9829C239.323 19.8391 249.816 18.9997 260.147 18.4618C260.258 18.4566 260.368 18.4515 260.478 18.4464C267.47 18.151 274.468 18.0869 283.5 18.3022C287.782 18.4123 292.439 18.5967 297.799 18.9516C314.595 19.9804 337.837 23.3083 360.212 30.8931C360.23 30.8993 360.247 30.9054 360.265 30.9115C382.53 38.2241 404.308 48.7667 418.333 59.0041C467.293 95.263 482.68 131.828 489.889 148.386C502.236 178.228 513.182 214.268 510.285 247.415C509.649 251.047 507.942 244.922 508.158 238.343C508.162 238.105 508.166 237.867 508.169 237.628C508.194 235.352 508.185 233.337 508.056 230.533C507.807 226.48 507.48 223.463 507.148 220.714C507.593 213.291 495.591 164.185 487.155 148.055C480.184 132.488 463.169 98.6933 415.161 63.1631C401.772 53.4125 382.18 40.688 359.942 33.303C359.882 33.2826 359.821 33.2622 359.761 33.2418C337.795 25.7518 314.58 22.3442 297.676 21.3134C292.39 20.9624 287.764 20.7786 283.5 20.671C273.979 20.4487 266.675 20.5474 259.535 20.8811C259.434 20.8858 259.333 20.8905 259.232 20.8953C249.109 21.4666 239.197 22.3133 223.841 26.2587C213.354 28.995 200.53 33.1678 187.412 39.0618C160.602 50.7166 133.617 70.8265 117.667 87.9865C116.208 89.5144 114.61 90.4712 114.068 90.095C113.529 89.7187 114.261 88.1366 115.733 86.5886ZM105.504 75.9883C149.673 26.2272 217.995 -1.93493 283.5 0.957426C288.434 1.13046 293.284 1.45589 298.153 1.93385C316.39 2.98201 341.783 7.21725 365.71 16.0075C365.98 16.106 366.25 16.205 366.519 16.3044C390.24 24.86 412.011 37.6277 426.484 48.2085C478.174 86.5447 495.623 124.746 503.352 142.416C510.115 159.587 511.425 164.492 513.928 171.612C513.993 171.807 514.057 172.003 514.12 172.199C514.126 172.211 514.133 172.223 514.139 172.236C514.249 172.472 514.333 172.673 514.375 172.777C514.461 172.989 514.524 173.164 514.548 173.23C514.602 173.382 514.644 173.51 514.659 173.555C514.722 173.742 514.79 173.956 514.833 174.094C515.242 175.385 516.422 179.413 517.223 182.654C518.049 185.972 518.531 188.373 519.001 190.887C519.048 191.142 519.095 191.397 519.141 191.652C519.554 193.926 519.985 196.408 520.562 199.989C520.909 202.159 520.603 203.805 519.919 203.659C519.234 203.51 518.429 201.657 518.075 199.504C517.459 195.773 516.992 193.165 516.571 190.906C516.524 190.655 516.477 190.405 516.429 190.154C515.973 187.777 515.534 185.666 514.804 182.759C513.687 178.564 512.713 175.486 511.788 172.678C509.231 165.377 507.704 159.768 500.582 141.996C493.148 125.504 476.592 88.4332 425.129 50.1434C410.77 39.6413 389.18 26.9872 365.707 18.5226C365.433 18.4224 365.158 18.3227 364.883 18.2235C341.173 9.51682 316.061 5.33255 298.039 4.29315C293.185 3.98499 288.374 3.82797 283.5 3.81689C217.918 3.51449 154.479 31.0902 107.454 77.3707C98.4143 86.8066 90.8628 96.0875 84.4171 105.072C65.5709 131.615 55.6342 155.121 50.0725 178.138C48.9243 183.186 45.1733 196.337 42.8598 215.787C42.1899 221.492 41.6551 227.739 41.3803 234.544C41.2019 238.983 41.1353 243.609 41.216 248.5C41.4377 261.868 42.7814 276.786 46.0327 292.696C46.9586 297.222 47.9284 301.288 48.9298 305.106C53.5652 321.322 56.9171 334.481 71.8061 363.127C88.964 399.412 138.014 446.998 170.641 462.413C186.414 470.907 195.948 474.482 202.616 477.097C204.48 477.807 206.128 478.415 207.648 478.959C211.63 480.376 214.72 481.398 218.846 482.6C241.774 489.059 260.169 491.353 283.5 491.2C290.483 491.101 297.85 490.702 305.92 489.831C308.108 489.595 310.093 489.878 310.332 490.507C310.575 491.135 308.95 491.882 306.741 492.126C298.383 493.048 290.743 493.47 283.5 493.57C260.065 493.723 241.314 491.407 218.025 484.824C213.678 483.555 210.334 482.439 206.25 480.972C204.739 480.427 203.133 479.831 201.35 479.147C194.731 476.537 185.21 472.956 169.372 464.413C136.494 448.853 87.0629 400.864 69.7746 364.342C54.8752 335.704 51.5225 322.68 46.8132 306.377C45.7899 302.521 44.7903 298.388 43.836 293.785C40.4574 277.469 39.069 262.166 38.8447 248.5C38.7673 243.773 38.8267 239.285 38.9898 234.992C39.2522 228.124 39.7754 221.838 40.4359 216.094C42.7974 196.054 46.4008 183.589 47.3406 179.204C52.9619 155.111 63.4722 130.34 82.7438 103.345C89.1958 94.3838 96.6827 85.2212 105.504 75.9883ZM424.322 446.413C422.532 447.731 420.655 448.407 420.158 447.957C419.661 447.507 420.717 446.116 422.491 444.817C431.854 437.936 438.128 432.408 442.931 428.007C451.756 419.783 455.696 415.484 461.594 409.064C476.731 392.39 488.844 374.102 497.67 356.646C512.466 327.573 518.05 301.236 520.411 287.469C520.787 285.292 521.577 283.629 522.22 283.744C522.861 283.861 523.109 285.73 522.729 287.93C520.355 301.734 514.772 328.133 499.932 357.407C491.033 375.068 478.793 393.619 463.42 410.57C457.646 416.86 453.899 420.967 445.217 429.121C440.388 433.577 434.013 439.256 424.322 446.413Z" fill="#FADADD"/>
</g>
<g filter="url(#filter2_dd_3_55)">
<path d="M205.584 65.606C213.751 63.9481 221.078 65.6919 227.564 70.8375C234.018 75.8197 238.173 82.8842 240.03 92.0308C242.716 105.261 240.254 118.686 232.645 132.305C217.657 159.838 195.71 177.813 166.807 186.232L164.348 200.506C165.231 200.667 166.556 200.908 168.322 201.23C170.251 201.519 171.381 202.055 171.71 202.838C171.716 202.85 171.718 202.864 171.721 202.88C175.042 201.698 178.404 201.087 181.806 201.048C191.306 200.94 198.612 205.775 203.723 215.55C203.894 215.882 203.989 216.881 204.008 218.547C204.047 222.047 203.234 223.806 201.567 223.825C201.401 223.827 198.949 220.772 194.213 214.659C189.476 208.546 183.941 205.524 177.608 205.596C174.627 205.63 171.72 206.166 168.887 207.202C167.363 209.187 165.228 211.844 162.478 215.171L162.184 214.976C161.896 216.905 161.623 218.917 161.368 221.009C161.276 223.069 161.085 225.063 160.797 226.993C174.48 234.079 186.623 239.861 197.226 244.341C207.797 248.658 216.86 251.835 224.417 253.873C230.664 255.325 237.217 255.356 244.077 253.963C248.65 253.035 252.782 251.601 256.47 249.662C260.191 247.886 263.534 245.506 266.5 242.523C271.77 237.396 274.153 231.793 273.653 225.712C270.61 228.575 267.644 230.301 264.752 230.888C261.812 231.485 258.85 230.301 255.867 227.336C253.407 224.434 251.846 221.349 251.182 218.083C250.055 212.529 250.167 205.959 251.517 198.372C252.667 188.955 255.529 183.782 260.102 182.853C261.736 182.522 262.85 183.402 263.444 185.492C259.296 197.728 257.885 207.113 259.211 213.646C260.504 220.016 263.11 222.803 267.03 222.007C268.751 221.658 270.425 220.918 272.054 219.789C271.435 218.303 271.046 217.166 270.886 216.378C270.62 215.072 270.896 214.335 271.713 214.169C272.872 213.934 273.938 214.997 274.911 217.359C280.015 212.189 284.63 202.916 288.755 189.537C288.882 188.49 289.14 187.247 289.528 185.808C290.046 184.172 290.63 182.438 291.278 180.606C291.47 179.037 293.525 177.854 297.445 177.058C298.752 176.793 299.505 177.15 299.704 178.13L298.551 186.272C297.973 190.131 297.772 193.744 297.945 197.11C298.118 200.476 298.486 203.547 299.05 206.324C300.873 215.307 303.909 219.368 308.156 218.505C311.423 217.842 315.01 214.989 318.918 209.944C322.989 204.866 326.502 199.135 329.458 192.753C329.693 192.397 329.918 192.137 330.13 191.972C330.2 187.494 330.143 182.618 329.958 177.345C329.79 175.679 329.686 173.914 329.648 172.051C329.577 170.025 329.456 167.753 329.285 165.237C329.439 161.805 331.639 159.658 335.886 158.795C337.192 158.53 337.944 158.888 338.143 159.868C338.21 160.195 338.279 161.371 338.35 163.397C338.422 165.423 338.478 168.218 338.521 171.781C338.631 175.67 338.643 179.919 338.558 184.528C338.637 189.104 338.618 194.039 338.503 199.335L346.089 177.642C349.849 166.845 353.689 161.049 357.609 160.253C360.059 159.755 361.664 160.96 362.425 163.867C364.307 170.627 366.01 177.339 367.533 184.003C369.219 190.633 371.245 196.004 373.61 200.116C376.139 204.194 379.445 205.819 383.528 204.99C386.305 204.426 388.884 203.308 391.265 201.634C393.81 199.927 396.482 197.173 399.282 193.374C402.018 189.455 405.099 183.97 408.528 176.919C408.593 176.76 408.659 176.602 408.725 176.442C408.747 176.386 408.772 176.328 408.799 176.268C409.99 173.425 411.437 170.366 413.14 167.091C419.218 155.143 424.881 146.596 430.129 141.449C435.376 136.302 440.614 133.198 445.841 132.137C452.047 130.877 455.516 132.044 456.245 135.637C456.41 136.454 455.842 137.845 454.541 139.809C453.206 141.611 452.49 142.691 452.392 143.051C450.317 148.745 450.855 159.35 454.005 174.867C455.828 183.85 458.7 187.944 462.62 187.148C466.213 186.419 469.948 183.45 473.822 178.242C477.697 173.033 481.146 167.401 484.168 161.345C484.558 160.756 484.916 160.428 485.243 160.362C485.896 160.229 486.306 160.572 486.472 161.388C486.538 161.715 486.491 162.32 486.33 163.203C486.332 164.052 486.22 164.756 485.993 165.312C481.12 175.655 476.548 182.875 472.278 186.973C468.172 191.038 463.832 193.535 459.259 194.463C451.909 195.956 446.723 188.845 443.703 173.131C441.727 179.315 438.297 185.454 433.412 191.547C427.679 198.493 422.199 202.497 416.973 203.558C410.276 204.918 406.264 202.331 404.937 195.797C404.708 194.668 404.613 193.426 404.648 192.074C402.877 194.936 400.948 197.61 398.86 200.092C394.202 205.63 389.423 208.895 384.523 209.89C377.337 211.349 371.298 208.834 366.409 202.343C361.65 195.656 357.258 185.749 353.232 172.621C351.183 175.928 348.925 180.723 346.459 187.005C344.156 193.255 341.597 201.173 338.781 210.758C338.62 211.641 338.329 212.721 337.908 213.997C337.454 215.109 336.984 216.565 336.499 218.364C336.144 219.966 335.395 220.884 334.252 221.116C333.108 221.348 331.734 220.862 330.129 219.657C328.687 218.419 327.85 217.229 327.618 216.086L327.469 215.35L328.828 210.738C329.264 207.512 329.602 203.812 329.847 199.64C325.584 208.106 321.477 214.272 317.519 218.135C313.283 222.397 309.204 224.925 305.284 225.721C300.711 226.65 297.177 225.581 294.684 222.516C292.191 219.451 290.298 214.733 289.005 208.363C288.839 207.546 288.673 206.729 288.508 205.913C288.309 204.933 288.208 204.018 288.206 203.169C286.717 208.403 283.66 213.87 279.035 219.571C278.184 220.709 277.337 221.761 276.497 222.731C276.596 223.173 276.695 223.632 276.792 224.108C278.483 232.438 276.119 240.061 269.7 246.976C263.281 253.891 254.436 258.493 243.166 260.781C232.712 262.903 222.153 262.41 211.488 259.303C208.843 258.59 205.555 257.518 201.623 256.087C203.698 259.142 204.756 262.377 204.795 265.792C204.942 278.791 189.393 289.218 158.147 297.074C165.988 297.651 173.004 298.988 179.195 301.085C185.553 303.179 191.168 305.948 196.041 309.393C207.47 317.764 213.265 329.116 213.429 343.448C213.576 356.447 208.878 368.335 199.334 379.111C190.446 389.046 179.27 395.59 165.806 398.744C159.325 400.484 152.501 401.395 145.335 401.476C122.836 401.732 104.677 395.105 90.8553 381.595C75.7299 414.603 57.334 431.23 35.6688 431.476C33.0025 431.506 30.4924 430.619 28.1385 428.812C25.7864 427.172 24.5936 424.935 24.5614 422.102C24.5121 417.769 25.6542 415.59 27.9871 415.563C28.3205 415.559 30.5051 417.118 34.5409 420.239C38.2452 423.53 42.0978 425.152 46.0975 425.107C58.43 424.966 71.6628 408.731 85.7957 376.402L83.5086 373.178L82.2928 376.192C82.2947 376.359 82.1311 376.611 81.8016 376.948C81.3017 376.953 80.962 376.374 80.7821 375.21C80.9449 374.874 81.0231 374.457 81.0174 373.957L82.2362 371.193C75.619 360.934 72.2366 349.304 72.0887 336.305C72.068 334.472 73.211 332.376 75.5174 330.016C77.8277 327.99 79.226 326.391 79.7127 325.218C80.2013 324.213 80.6775 322.124 81.1414 318.952C81.4615 317.781 81.9543 317.108 82.619 316.934C82.7856 316.934 82.9043 320.017 82.9744 326.181C83.0389 331.847 83.4336 337.26 84.159 342.419C85.0492 347.409 86.1054 352.314 87.327 357.133C91.3662 345.92 94.0848 335.805 95.4823 326.789C95.1566 327.459 94.5833 328.382 93.7635 329.558C93.1102 330.732 92.1163 331.327 90.783 331.342C90.2832 331.348 90.0309 331.101 90.0252 330.601C90.0177 329.934 90.671 328.76 91.9852 327.079C93.2975 325.23 94.6105 323.465 95.9246 321.784C96.0704 319.949 96.134 318.197 96.1151 316.531C96.2608 314.696 96.3234 312.862 96.3026 311.029C96.2646 307.696 96.0596 304.364 95.6883 301.035C95.4818 297.537 95.0256 294.042 94.3192 290.549C93.2475 285.973 91.7679 281.77 89.8817 277.94C89.2555 277.967 88.6247 277.99 87.9891 277.998C84.6229 278.171 80.9447 278.067 76.9559 277.686C73.9805 277.27 72.3931 276.571 72.1942 275.591C72.0948 275.101 72.5356 274.757 73.5155 274.558C74.0055 274.459 74.9368 274.439 76.3094 274.501C80.4123 274.905 84.3522 274.965 88.1287 274.685C86.7057 272.264 85.1002 270.01 83.3114 267.923C77.0636 260.827 69.6917 257.494 61.1961 257.924L60.4461 257.933C65.9514 258.371 68.7361 261.422 68.8006 267.088C68.8348 270.088 67.6988 272.768 65.3924 275.128C63.3072 267.651 59.264 263.947 53.2645 264.015C52.598 264.023 51.932 264.113 51.2674 264.288C50.6009 264.295 49.935 264.387 49.2704 264.561L49.2684 264.311C48.8573 257.482 53.151 254.016 62.1502 253.914C70.6496 253.817 78.5236 257.31 85.7713 264.395C88.8094 267.289 91.3512 270.509 93.3993 274.055C94.0316 273.95 94.6597 273.837 95.2821 273.711C110.945 270.531 122.594 259.236 130.232 239.828C118.866 238.499 106.78 237.905 93.9725 238.05C55.1487 238.492 30.2921 243.485 19.4041 253.029C19.4269 253.148 19.4483 253.267 19.4725 253.386C21.3957 262.86 27.1563 271.13 36.7537 278.195C45.532 284.576 53.6641 287.772 61.1493 287.783C63.0121 287.745 64.0264 288.134 64.1922 288.951C64.4242 290.094 63.4786 290.881 61.3553 291.312C61.0287 291.378 60.5388 291.478 59.8856 291.611C59.3956 291.71 58.8073 291.744 58.1209 291.713C49.6558 291.901 41.2965 289.262 33.0438 283.794C23.9056 277.316 18.2753 268.85 16.1532 258.397C16.0559 257.918 15.9689 257.436 15.8875 256.951C13.9496 259.803 13.0001 262.977 13.0399 266.473C13.1557 276.639 22.5891 285.366 41.3397 292.653L41.8455 293.147C41.8512 293.647 41.0218 293.99 39.3573 294.175C33.191 294.246 25.8151 290.579 17.2303 283.176C8.64563 275.774 4.31496 268.739 4.2391 262.073C4.14924 254.173 7.96055 247.714 15.6717 242.694C15.7147 242.341 15.7606 241.986 15.8104 241.63C17.5751 230.218 22.6956 220.675 31.1717 213.002C39.1579 205.428 49.0317 200.448 60.7918 198.06C70.1018 196.17 79.6299 196.192 89.3758 198.125C102.98 200.635 118.915 206.244 137.179 214.951C137.664 213.152 138.148 210.928 138.631 208.279C139.08 205.467 139.692 202.196 140.466 198.467L142.304 189.931C131.583 189.897 121.117 187.769 110.907 183.549C93.6279 176.343 83.4459 165.145 80.3621 149.955C78.9696 143.095 79.5247 137.03 82.0262 131.76C84.6911 126.458 88.9636 123.209 94.8436 122.015C98.9268 121.186 102.85 121.666 106.614 123.453C110.378 125.239 112.658 128.092 113.454 132.012L113.603 132.748C114.101 135.198 113.206 136.654 110.92 137.119C107.653 137.782 105.607 136.497 104.78 133.263C103.009 131.242 100.408 130.58 96.9784 131.276C96.3252 131.409 95.7701 131.606 95.3133 131.869C94.8233 131.968 94.2675 132.166 93.6473 132.462C85.6492 135.787 82.4622 141.451 84.0868 149.454C86.9052 163.337 96.0717 173.721 111.585 180.606C121.142 184.958 131.606 186.661 142.978 185.712C153.093 134.17 165.349 99.8788 179.747 82.8404C187.825 73.2077 196.437 67.463 205.584 65.606ZM152.958 302.383C139.625 302.535 127.237 305.093 115.793 310.057C111.29 324.443 107.265 336.906 103.718 347.447C100.337 357.986 97.2679 366.605 94.5106 373.303C104.701 390.022 119.88 398.266 140.046 398.037C156.544 397.849 170.316 392.358 181.36 381.565C192.571 370.77 198.084 357.123 197.896 340.625C197.602 314.793 182.623 302.046 152.958 302.383ZM295.218 235.01C300.217 234.953 303.59 238.332 305.334 245.146L305.371 248.396C305.507 260.395 296.489 280.749 278.314 309.458C270.622 321.879 263.328 332.713 256.432 341.959C249.704 351.202 243.376 359.025 237.448 365.426C239.619 380.402 246.62 387.824 258.453 387.689C265.619 387.607 271.68 385.538 276.634 381.481C281.586 377.258 286.856 371.614 292.442 364.55C292.654 364.333 292.851 364.14 293.033 363.969C294.628 358.451 296.928 352.282 299.934 345.463C304.816 335.074 308.924 329.861 312.257 329.823C315.423 329.787 318.027 331.507 320.066 334.984C321.394 334.469 322.474 334.206 323.307 334.197C327.974 334.144 330.347 337.617 330.427 344.617C330.461 347.617 329.917 351.123 328.796 355.136C327.675 359.149 325.731 364.172 322.967 370.204C327.177 373.989 331.282 375.86 335.282 375.814C338.448 375.778 341.44 374.994 344.256 373.461C347.07 371.763 350.2 368.56 353.646 363.854C353.807 363.69 354.008 363.565 354.248 363.479C355.845 357.908 358.166 351.67 361.21 344.766C366.092 334.377 370.199 329.164 373.532 329.126C376.699 329.09 379.302 330.81 381.342 334.287C382.669 333.772 383.75 333.509 384.583 333.5C389.249 333.447 391.622 336.92 391.702 343.919C391.736 346.919 391.192 350.426 390.071 354.439C388.95 358.452 387.007 363.475 384.242 369.506C388.452 373.292 392.558 375.162 396.557 375.117C399.724 375.081 402.715 374.296 405.531 372.764C408.345 371.065 411.475 367.863 414.922 363.157C415.107 362.967 415.348 362.831 415.64 362.746C417.157 357.723 418.379 353.427 419.301 349.856C420.895 343.505 421.681 339.329 421.658 337.329C421.65 336.662 421.562 336.246 421.393 336.082C424.692 333.044 427.842 331.507 430.842 331.473C432.342 331.456 432.93 331.867 432.606 332.704L428.393 358.003C430.033 355.651 433.417 352.696 438.544 349.137C441.189 347.274 443.424 345.914 445.248 345.06C447.238 344.204 448.817 343.77 449.983 343.756C455.149 343.698 458.184 354.081 459.088 374.905C460.883 371.551 463.252 367.357 466.195 362.323C469.305 357.287 472.906 351.496 476.998 344.949C479.295 341.756 481.778 340.144 484.444 340.114C486.944 340.086 488.462 341.652 488.998 344.813C489.572 351.307 490.141 357.384 490.705 363.044C491.267 368.538 492.401 372.942 494.105 376.256C495.81 379.571 498.663 381.289 502.665 381.41C507.665 381.353 512.56 379.463 517.351 375.742C522.307 371.852 526.755 367.218 530.694 361.839C531.512 360.497 532.338 359.821 533.171 359.811C533.671 359.805 533.929 360.469 533.944 361.802C533.948 362.136 533.623 362.889 532.97 364.063C532.314 365.071 531.822 365.744 531.492 366.081C528.706 370.279 525.42 374.401 521.633 378.444C518.01 382.319 514.129 385.529 509.991 388.077C505.851 390.457 501.698 391.671 497.532 391.718C491.366 391.788 486.828 388.507 483.919 381.873C481.01 375.239 479.153 365.842 478.348 353.684C474.884 356.89 471.199 362.6 467.292 370.811C464.845 375.506 462.806 379.446 461.176 382.631C459.543 385.65 458.318 387.831 457.5 389.173C455.862 391.692 454.293 392.961 452.793 392.978C451.293 392.995 450.112 391.758 449.251 389.268L449.197 384.518C448.962 363.853 446.178 353.55 440.845 353.611C437.345 353.651 432.076 359.378 425.039 370.792C423.073 373.814 421.107 376.837 419.141 379.86C417.342 382.88 415.544 385.901 413.745 388.921C412.749 389.266 412.001 389.441 411.501 389.447C409.834 389.466 408.986 388.226 408.958 385.726L408.949 384.976L411.836 374.943C412.311 373.46 412.768 372.02 413.208 370.624C411.626 372.252 409.828 373.791 407.809 375.238C404.668 377.44 400.68 378.57 395.847 378.625C391.014 378.679 386.662 377.062 382.791 373.773C376.615 387.677 369.278 394.678 360.778 394.775C354.612 394.845 351.478 390.38 351.376 381.38C351.349 379.047 351.569 376.461 352.037 373.623C352.198 372.647 352.378 371.652 352.578 370.637C350.846 372.52 348.832 374.287 346.534 375.935C343.392 378.138 339.404 379.267 334.571 379.322C329.738 379.377 325.386 377.76 321.515 374.47C315.34 388.375 308.002 395.376 299.503 395.472C293.337 395.542 290.203 391.077 290.1 382.078C290.074 379.745 290.294 377.159 290.762 374.32C290.905 373.449 291.065 372.562 291.24 371.659C285.006 379.409 279.081 385.03 273.464 388.518C267.174 392.423 260.613 394.414 253.78 394.492C236.948 394.683 228.391 382.364 228.108 357.532C227.831 333.2 235.53 306.694 251.205 278.014C266.548 249.505 281.219 235.17 295.218 235.01ZM308.274 353.37C306.293 355.059 304.259 359.416 302.173 366.44C300.086 373.464 299.06 378.56 299.097 381.726C299.148 386.225 300.757 388.457 303.923 388.421C306.256 388.395 309.147 386.111 312.596 381.572C314.075 379.722 315.304 377.874 316.283 376.03C317.26 374.019 317.911 372.678 318.237 372.007C315.705 369.203 313.505 366.227 311.636 363.082C309.766 359.936 308.646 356.699 308.274 353.37ZM369.55 352.672C367.569 354.362 365.535 358.719 363.448 365.743C361.361 372.767 360.336 377.862 360.372 381.029C360.423 385.528 362.032 387.76 365.198 387.724C367.531 387.698 370.422 385.414 373.871 380.875C375.35 379.024 376.579 377.177 377.558 375.333C378.536 373.321 379.187 371.981 379.513 371.31C376.98 368.505 374.78 365.53 372.911 362.384C371.042 359.239 369.921 356.002 369.55 352.672ZM318.612 339.001C315.446 339.037 313.897 342.138 313.968 348.304C313.998 350.971 314.618 354.214 315.828 358.034C317.205 361.852 318.573 364.836 319.931 366.988C321.23 363.973 322.194 360.878 322.825 357.704C323.456 354.53 323.75 351.11 323.708 347.444C323.643 341.778 321.945 338.963 318.612 339.001ZM379.888 338.303C376.721 338.339 375.173 341.441 375.243 347.607C375.273 350.273 375.893 353.517 377.103 357.336C378.48 361.154 379.848 364.139 381.206 366.291C382.505 363.276 383.47 360.181 384.1 357.007C384.731 353.833 385.025 350.413 384.983 346.747C384.919 341.081 383.22 338.266 379.888 338.303ZM106.847 314.909C105.524 315.757 104.201 316.689 102.879 317.704C101.722 318.55 100.566 319.564 99.4129 320.744C98.6441 326.419 97.3812 332.601 95.6239 339.288C93.8665 345.975 91.5305 353.086 88.6161 360.62C88.9569 361.282 89.2153 362.03 89.3914 362.861C89.7323 363.524 90.075 364.27 90.4178 365.099L90.659 364.346C91.4715 362.504 93.2479 357.483 95.9881 349.285C98.7265 340.92 102.346 329.461 106.847 314.909ZM290.542 241.564C280.209 241.682 268.629 256.648 255.801 286.462C249.801 301.198 245.203 314.585 242.007 326.622C238.977 338.657 237.517 349.507 237.627 359.173C246.526 350.238 258.076 332.606 272.277 306.276C287.293 278.27 294.741 259.017 294.622 248.518C294.569 243.852 293.208 241.534 290.542 241.564ZM127.028 259.301C119.081 268.775 109.483 274.654 98.2332 276.938C97.2257 277.143 96.2035 277.317 95.1678 277.462C96.6497 280.656 97.7743 284.085 98.5379 287.752C99.7633 292.905 100.413 298.731 100.487 305.231C100.533 309.23 100.329 313.399 99.8787 317.738C101.197 316.39 102.516 315.125 103.836 313.943C105.322 312.759 106.727 311.66 108.049 310.645C114.599 290.452 120.926 273.337 127.028 259.301ZM139.509 241.033C136.746 247.231 133.425 255.686 129.547 266.397C125.835 277.107 121.65 290.155 116.991 305.543C121.964 303.152 134.339 299.345 154.114 294.12C179.701 286.995 192.435 278.182 192.315 267.683C192.23 260.184 184.07 253.443 167.834 247.461C165.059 246.533 162.14 245.676 159.08 244.885C158.55 251.745 158.242 258.204 158.159 264.262C158.084 272.271 158.318 279.706 158.861 286.569C158.8 287.941 158.524 288.677 158.034 288.777C157.544 288.876 157.101 288.371 156.706 287.261C156.573 286.608 156.422 285.448 156.254 283.782C156.282 282.246 156.228 280.301 156.091 277.948C155.647 271.575 155.497 264.973 155.64 258.141C155.761 253.61 155.934 248.949 156.159 244.161C150.992 242.934 145.442 241.891 139.509 241.033ZM87.8934 210.925C77.1317 208.178 66.5236 207.866 56.0702 209.988C34.9559 214.274 22.792 224.426 19.578 240.444C25.6419 237.342 33.5034 234.903 43.1629 233.128C51.3138 231.702 59.7184 230.607 68.3768 229.841C77.2001 228.908 86.2784 228.387 95.6112 228.281C103.944 228.186 111.864 228.429 119.371 229.01C124.146 229.274 128.855 229.674 133.498 230.21C133.78 229.244 134.056 228.263 134.322 227.265C116.65 219.799 101.174 214.352 87.8934 210.925ZM158.874 213.203C156.144 215.521 153.493 218.368 150.92 221.746C150.971 221.772 151.023 221.797 151.074 221.824C152.973 222.799 155.166 223.969 157.654 225.335L159.041 213.318C158.984 213.28 158.929 213.241 158.874 213.203ZM163.133 186.978C159.572 187.871 156.142 188.567 152.843 189.067C151.683 195.085 150.523 200.678 149.361 205.845C148.166 210.85 147.051 215.412 146.017 219.534C146.903 219.865 147.865 220.274 148.904 220.758C151.664 217.343 154.456 214.372 157.278 211.844C156.961 211.499 156.695 211.143 156.484 210.776C155.959 209.862 155.548 209.095 155.252 208.475C154.987 207.168 155.324 205.059 156.264 202.148C157.333 199.04 158.929 197.27 161.053 196.838L161.298 196.789C161.686 195.349 161.976 193.845 162.168 192.276C162.49 190.51 162.811 188.744 163.133 186.978ZM439.45 143.383C436.183 144.047 432.252 146.885 427.658 151.899C423.715 155.931 420.72 160.025 418.673 164.182C413.864 174.002 412.089 182.016 413.348 188.222C414.542 194.102 417.508 196.562 422.245 195.6C425.021 195.036 427.729 193.296 430.368 190.379C438.446 180.746 441.817 165.096 440.479 143.429C439.99 143.529 439.647 143.513 439.45 143.383ZM223.403 72.9576C218.881 69.1138 213.517 67.8216 207.31 69.0816C199.307 70.7064 191.479 76.5474 183.827 86.6041C176.142 96.4975 169.744 111.061 164.636 130.295C163.699 134.057 162.279 140.468 160.377 149.528C158.605 158.391 156.431 169.887 153.857 184.014C155.621 183.486 157.385 182.957 159.148 182.429C160.912 181.901 162.594 181.39 164.194 180.895C165.936 172.719 167.79 164.264 169.759 155.531C171.891 146.765 174.169 137.884 176.595 128.888C184.782 100.526 191.293 85.6833 196.127 84.3619C197.27 84.1298 197.958 84.5858 198.19 85.7291C198.323 86.3823 198.112 87.0205 197.558 87.6431C192.9 93.1805 188.044 103.605 182.989 118.917C178.098 134.195 173.171 154.328 168.21 179.315C194.066 168.454 213.201 150.878 225.617 126.589C232.573 113.103 234.907 100.724 232.619 89.4537C231.16 82.2671 228.088 76.7683 223.403 72.9576Z" fill="#FFF8F0"/>
</g>
<g filter="url(#filter3_dd_3_55)">
<path d="M212.584 65.6065C220.75 63.9486 228.077 65.6924 234.564 70.838C241.018 75.8202 245.173 82.8847 247.03 92.0313C249.716 105.261 247.254 118.686 239.645 132.306C224.657 159.838 202.71 177.814 173.807 186.232L171.348 200.507C172.231 200.668 173.556 200.909 175.322 201.231C177.251 201.519 178.381 202.055 178.71 202.839C178.716 202.85 178.718 202.865 178.72 202.881C182.042 201.699 185.404 201.088 188.806 201.049C198.306 200.941 205.612 205.775 210.723 215.551C210.894 215.883 210.989 216.882 211.008 218.548C211.047 222.047 210.234 223.806 208.567 223.825C208.4 223.827 205.949 220.772 201.213 214.659C196.476 208.546 190.941 205.525 184.608 205.597C181.627 205.631 178.72 206.167 175.886 207.202C174.363 209.188 172.228 211.845 169.478 215.172L169.184 214.977C168.896 216.906 168.623 218.917 168.368 221.01C168.276 223.069 168.085 225.064 167.797 226.993C181.48 234.079 193.623 239.862 204.226 244.342C214.796 248.659 223.86 251.836 231.417 253.873C237.664 255.326 244.217 255.356 251.077 253.964C255.65 253.035 259.782 251.601 263.469 249.662C267.19 247.886 270.534 245.506 273.5 242.523C278.77 237.396 281.153 231.793 280.653 225.713C277.61 228.575 274.644 230.301 271.752 230.889C268.812 231.486 265.85 230.302 262.867 227.336C260.407 224.434 258.846 221.35 258.182 218.083C257.055 212.53 257.166 205.959 258.517 198.372C259.667 188.955 262.529 183.782 267.102 182.854C268.735 182.522 269.85 183.402 270.444 185.492C266.296 197.729 264.884 207.113 266.211 213.647C267.504 220.017 270.11 222.804 274.03 222.008C275.751 221.658 277.425 220.918 279.053 219.789C278.435 218.303 278.045 217.167 277.885 216.379C277.62 215.072 277.896 214.336 278.713 214.17C279.872 213.935 280.938 214.998 281.911 217.359C287.014 212.19 291.63 202.916 295.755 189.537C295.882 188.491 296.14 187.248 296.528 185.809C297.046 184.173 297.63 182.439 298.278 180.607C298.47 179.037 300.525 177.854 304.445 177.059C305.752 176.793 306.505 177.151 306.704 178.131L305.551 186.273C304.973 190.131 304.772 193.744 304.945 197.11C305.118 200.476 305.486 203.548 306.05 206.324C307.873 215.308 310.909 219.368 315.156 218.506C318.423 217.843 322.01 214.989 325.918 209.944C329.989 204.866 333.502 199.135 336.458 192.753C336.693 192.398 336.917 192.138 337.13 191.973C337.199 187.494 337.143 182.618 336.958 177.346C336.789 175.679 336.686 173.915 336.648 172.052C336.577 170.025 336.456 167.754 336.285 165.237C336.439 161.805 338.639 159.658 342.885 158.796C344.192 158.531 344.944 158.888 345.143 159.868C345.21 160.195 345.279 161.372 345.35 163.398C345.422 165.424 345.478 168.219 345.521 171.781C345.63 175.671 345.643 179.92 345.558 184.528C345.637 189.104 345.618 194.04 345.503 199.335L353.089 177.643C356.849 166.846 360.689 161.049 364.609 160.253C367.059 159.756 368.664 160.96 369.425 163.867C371.307 170.628 373.01 177.34 374.533 184.003C376.219 190.633 378.245 196.005 380.61 200.116C383.139 204.195 386.445 205.819 390.528 204.99C393.305 204.427 395.884 203.309 398.265 201.635C400.81 199.928 403.482 197.174 406.282 193.374C409.018 189.456 412.099 183.97 415.528 176.919C415.593 176.761 415.659 176.602 415.725 176.442C415.747 176.387 415.771 176.329 415.799 176.269C416.99 173.425 418.436 170.366 420.14 167.092C426.218 155.144 431.881 146.596 437.129 141.449C442.376 136.302 447.614 133.199 452.841 132.138C459.047 130.878 462.515 132.044 463.245 135.638C463.41 136.454 462.842 137.845 461.541 139.81C460.206 141.611 459.489 142.692 459.392 143.052C457.317 148.745 457.855 159.35 461.005 174.867C462.828 183.851 465.7 187.944 469.62 187.148C473.213 186.419 476.947 183.45 480.822 178.242C484.697 173.034 488.145 167.401 491.168 161.346C491.558 160.757 491.916 160.429 492.243 160.362C492.896 160.23 493.306 160.572 493.471 161.389C493.538 161.715 493.491 162.32 493.33 163.203C493.332 164.053 493.22 164.756 492.993 165.313C488.12 175.655 483.548 182.876 479.278 186.974C475.171 191.038 470.832 193.535 466.259 194.464C458.908 195.956 453.723 188.845 450.703 173.132C448.727 179.315 445.297 185.454 440.412 191.548C434.679 198.494 429.199 202.498 423.972 203.559C417.276 204.918 413.264 202.331 411.937 195.798C411.708 194.668 411.613 193.427 411.648 192.074C409.876 194.937 407.948 197.611 405.86 200.093C401.202 205.63 396.423 208.896 391.523 209.891C384.336 211.35 378.298 208.834 373.409 202.344C368.65 195.657 364.258 185.749 360.232 172.621C358.183 175.928 355.925 180.723 353.459 187.006C351.156 193.256 348.597 201.174 345.781 210.759C345.62 211.642 345.329 212.721 344.908 213.997C344.454 215.11 343.984 216.565 343.499 218.364C343.144 219.967 342.395 220.884 341.252 221.116C340.108 221.348 338.734 220.862 337.129 219.657C335.687 218.419 334.85 217.229 334.618 216.086L334.468 215.351L335.828 210.738C336.264 207.512 336.602 203.813 336.846 199.641C332.584 208.107 328.477 214.273 324.519 218.136C320.282 222.397 316.204 224.926 312.284 225.722C307.711 226.65 304.177 225.582 301.684 222.517C299.191 219.451 297.298 214.733 296.005 208.363C295.839 207.547 295.673 206.73 295.508 205.913C295.309 204.933 295.208 204.019 295.206 203.169C293.717 208.403 290.66 213.871 286.035 219.571C285.184 220.709 284.337 221.762 283.497 222.732C283.596 223.173 283.695 223.632 283.792 224.108C285.483 232.438 283.119 240.061 276.7 246.977C270.281 253.892 261.436 258.493 250.166 260.781C239.712 262.903 229.153 262.411 218.488 259.304C215.843 258.591 212.555 257.518 208.623 256.088C210.698 259.142 211.756 262.377 211.795 265.792C211.942 278.791 196.393 289.218 165.147 297.074C172.988 297.652 180.004 298.989 186.195 301.085C192.552 303.179 198.168 305.949 203.041 309.394C214.47 317.764 220.265 329.116 220.428 343.448C220.576 356.447 215.878 368.335 206.334 379.111C197.446 389.046 186.27 395.591 172.805 398.744C166.325 400.485 159.501 401.395 152.335 401.477C129.836 401.733 111.676 395.106 97.8552 381.596C82.7298 414.603 64.3339 431.23 42.6687 431.477C40.0024 431.507 37.4923 430.619 35.1384 428.813C32.7863 427.173 31.5935 424.936 31.5612 422.103C31.5119 417.77 32.6541 415.59 34.987 415.564C35.3203 415.56 37.505 417.118 41.5407 420.239C45.2451 423.531 49.0977 425.153 53.0974 425.107C65.4299 424.967 78.6626 408.732 92.7956 376.402L90.5085 373.179L89.2927 376.192C89.2946 376.359 89.131 376.611 88.8015 376.948C88.3016 376.954 87.9619 376.375 87.7819 375.21C87.9448 374.875 88.023 374.457 88.0173 373.957L89.236 371.193C82.6189 360.935 79.2365 349.305 79.0886 336.306C79.0679 334.473 80.2109 332.376 82.5173 330.017C84.8275 327.99 86.2259 326.391 86.7126 325.219C87.2012 324.213 87.6774 322.124 88.1413 318.952C88.4614 317.782 88.9541 317.109 89.6189 316.935C89.7854 316.935 89.9042 320.017 89.9743 326.182C90.0388 331.848 90.4335 337.26 91.1589 342.419C92.0491 347.409 93.1053 352.314 94.3269 357.134C98.3661 345.921 101.085 335.805 102.482 326.789C102.156 327.459 101.583 328.383 100.763 329.559C100.11 330.733 99.1162 331.328 97.7829 331.343C97.2831 331.348 97.0308 331.102 97.0251 330.602C97.0176 329.935 97.6709 328.761 98.9851 327.079C100.297 325.231 101.61 323.466 102.925 321.784C103.07 319.949 103.134 318.198 103.115 316.531C103.261 314.696 103.323 312.862 103.302 311.029C103.265 307.696 103.059 304.365 102.688 301.035C102.482 297.537 102.025 294.042 101.319 290.55C100.247 285.974 98.7678 281.771 96.8816 277.94C96.2553 277.968 95.6246 277.99 94.989 277.998C91.6228 278.171 87.9446 278.067 83.9558 277.687C80.9804 277.27 79.393 276.572 79.1941 275.592C79.0947 275.102 79.5354 274.758 80.5153 274.559C81.0054 274.459 81.9367 274.44 83.3093 274.501C87.4122 274.905 91.352 274.965 95.1286 274.686C93.7055 272.264 92.1001 270.01 90.3112 267.924C84.0635 260.828 76.6916 257.495 68.196 257.925L67.446 257.934C72.9512 258.371 75.736 261.423 75.8005 267.089C75.8346 270.089 74.6987 272.768 72.3923 275.128C70.3071 267.651 66.2639 263.947 60.2644 264.016C59.5979 264.023 58.9319 264.114 58.2673 264.288C57.6008 264.296 56.9348 264.387 56.2702 264.562L56.2683 264.312C55.8572 257.483 60.1508 254.017 69.1501 253.914C77.6495 253.817 85.5235 257.311 92.7712 264.396C95.8093 267.289 98.3511 270.51 100.399 274.056C101.031 273.95 101.66 273.837 102.282 273.711C117.945 270.531 129.594 259.236 137.232 239.828C125.866 238.499 113.78 237.905 100.972 238.051C62.1486 238.493 37.292 243.485 26.404 253.029C26.4268 253.148 26.4482 253.268 26.4724 253.387C28.3956 262.86 34.1562 271.13 43.7536 278.195C52.5319 284.576 60.664 287.772 68.1491 287.783C70.012 287.745 71.0263 288.135 71.1921 288.951C71.4241 290.094 70.4784 290.882 68.3552 291.313C68.0285 291.379 67.5387 291.479 66.8855 291.611C66.3955 291.711 65.8072 291.745 65.1208 291.714C56.6556 291.902 48.2964 289.262 40.0437 283.795C30.9055 277.317 25.2752 268.851 23.153 258.398C23.0558 257.919 22.9687 257.436 22.8874 256.951C20.9495 259.803 20 262.977 20.0398 266.474C20.1555 276.64 29.5889 285.366 48.3396 292.653L48.8454 293.148C48.8511 293.647 48.0217 293.99 46.3571 294.176C40.1909 294.246 32.815 290.58 24.2302 283.177C15.6455 275.774 11.3148 268.74 11.239 262.073C11.1491 254.174 14.9604 247.714 22.6716 242.694C22.7146 242.341 22.7605 241.987 22.8103 241.631C24.575 230.218 29.6955 220.675 38.1716 213.002C46.1578 205.428 56.0316 200.448 67.7917 198.061C77.1017 196.171 86.6297 196.192 96.3757 198.125C109.98 200.635 125.915 206.244 144.178 214.951C144.663 213.152 145.148 210.928 145.631 208.279C146.08 205.467 146.692 202.196 147.466 198.468L149.303 189.932C138.582 189.897 128.117 187.769 117.907 183.55C100.628 176.343 90.4458 165.145 87.362 149.955C85.9695 143.095 86.5245 137.03 89.0261 131.761C91.691 126.458 95.9635 123.209 101.843 122.016C105.927 121.187 109.85 121.666 113.614 123.453C117.378 125.24 119.658 128.093 120.454 132.013L120.603 132.748C121.101 135.198 120.206 136.655 117.92 137.119C114.653 137.782 112.606 136.497 111.78 133.264C110.009 131.242 107.408 130.58 103.978 131.276C103.325 131.409 102.77 131.606 102.313 131.869C101.823 131.969 101.267 132.167 100.647 132.463C92.6491 135.787 89.462 141.451 91.0866 149.454C93.9051 163.338 103.072 173.722 118.585 180.607C128.142 184.959 138.606 186.661 149.978 185.713C160.093 134.17 172.349 99.8793 186.747 82.8409C194.825 73.2082 203.437 67.4635 212.584 65.6065ZM159.958 302.384C146.625 302.536 134.237 305.094 122.793 310.058C118.289 324.443 114.264 336.906 110.717 347.447C107.337 357.986 104.268 366.605 101.51 373.304C111.701 390.022 126.88 398.267 147.046 398.037C163.544 397.849 177.316 392.358 188.36 381.565C199.571 370.771 205.084 357.124 204.896 340.625C204.602 314.793 189.622 302.046 159.958 302.384ZM302.217 235.011C307.217 234.954 310.589 238.333 312.334 245.147L312.371 248.397C312.507 260.396 303.488 280.75 285.314 309.458C277.622 321.88 270.328 332.713 263.432 341.959C256.704 351.203 250.376 359.026 244.448 365.427C246.619 380.403 253.62 387.824 265.453 387.69C272.619 387.608 278.679 385.538 283.634 381.482C288.586 377.258 293.856 371.615 299.442 364.551C299.654 364.334 299.851 364.14 300.033 363.97C301.628 358.451 303.928 352.282 306.934 345.464C311.816 335.075 315.924 329.861 319.257 329.823C322.423 329.787 325.026 331.507 327.066 334.984C328.394 334.469 329.474 334.207 330.307 334.197C334.974 334.144 337.347 337.618 337.426 344.617C337.461 347.617 336.917 351.124 335.796 355.137C334.675 359.15 332.731 364.172 329.967 370.204C334.177 373.99 338.282 375.86 342.282 375.815C345.448 375.778 348.44 374.994 351.256 373.462C354.07 371.763 357.2 368.561 360.646 363.855C360.807 363.69 361.008 363.566 361.248 363.48C362.844 357.908 365.166 351.671 368.21 344.767C373.092 334.378 377.199 329.164 380.532 329.126C383.698 329.09 386.302 330.81 388.342 334.287C389.669 333.772 390.749 333.51 391.583 333.5C396.249 333.447 398.622 336.921 398.702 343.92C398.736 346.92 398.192 350.426 397.071 354.44C395.95 358.452 394.007 363.475 391.242 369.507C395.452 373.293 399.558 375.163 403.557 375.117C406.724 375.081 409.715 374.297 412.531 372.765C415.345 371.066 418.475 367.863 421.922 363.157C422.107 362.967 422.348 362.831 422.64 362.746C424.157 357.724 425.379 353.428 426.301 349.857C427.895 343.505 428.681 339.329 428.658 337.329C428.65 336.663 428.562 336.247 428.393 336.082C431.692 333.044 434.842 331.508 437.842 331.474C439.341 331.457 439.93 331.867 439.606 332.704L435.393 358.004C437.033 355.652 440.417 352.696 445.544 349.138C448.189 347.274 450.424 345.915 452.248 345.061C454.238 344.205 455.817 343.77 456.983 343.757C462.149 343.698 465.184 354.081 466.088 374.905C467.883 371.551 470.252 367.357 473.195 362.323C476.305 357.288 479.905 351.496 483.998 344.949C486.295 341.756 488.778 340.145 491.444 340.114C493.944 340.086 495.462 341.653 495.998 344.814C496.572 351.307 497.14 357.385 497.705 363.045C498.267 368.539 499.401 372.943 501.105 376.257C502.81 379.571 505.663 381.289 509.665 381.41C514.664 381.353 519.56 379.464 524.351 375.742C529.307 371.852 533.755 367.218 537.694 361.84C538.512 360.497 539.337 359.821 540.171 359.812C540.671 359.806 540.929 360.47 540.944 361.803C540.948 362.136 540.623 362.89 539.969 364.064C539.314 365.071 538.821 365.744 538.492 366.081C535.706 370.28 532.42 374.401 528.633 378.444C525.01 382.319 521.129 385.53 516.991 388.077C512.851 390.458 508.698 391.671 504.532 391.719C498.366 391.789 493.828 388.507 490.919 381.873C488.01 375.239 486.152 365.843 485.347 353.685C481.884 356.891 478.199 362.6 474.292 370.812C471.845 375.506 469.806 379.446 468.176 382.632C466.543 385.651 465.318 387.831 464.5 389.174C462.862 391.693 461.293 392.962 459.793 392.979C458.293 392.995 457.112 391.758 456.251 389.269L456.197 384.519C455.962 363.853 453.177 353.551 447.844 353.611C444.345 353.651 439.076 359.378 432.039 370.792C430.073 373.815 428.107 376.838 426.141 379.86C424.342 382.881 422.544 385.901 420.745 388.922C419.749 389.267 419.001 389.442 418.501 389.447C416.834 389.466 415.986 388.226 415.958 385.727L415.949 384.977L418.836 374.943C419.311 373.461 419.768 372.021 420.208 370.624C418.626 372.253 416.827 373.791 414.809 375.238C411.667 377.441 407.679 378.57 402.846 378.625C398.014 378.68 393.662 377.063 389.791 373.773C383.615 387.678 376.277 394.679 367.778 394.775C361.612 394.846 358.478 390.38 358.376 381.381C358.349 379.048 358.569 376.462 359.037 373.623C359.198 372.648 359.378 371.653 359.578 370.638C357.846 372.521 355.832 374.288 353.534 375.936C350.392 378.138 346.404 379.267 341.571 379.322C336.738 379.377 332.386 377.76 328.515 374.471C322.34 388.375 315.002 395.376 306.503 395.473C300.337 395.543 297.203 391.077 297.1 382.078C297.074 379.745 297.294 377.159 297.761 374.32C297.905 373.449 298.065 372.562 298.24 371.659C292.006 379.41 286.081 385.03 280.464 388.519C274.174 392.424 267.613 394.414 260.78 394.492C243.948 394.684 235.391 382.364 235.108 357.532C234.831 333.201 242.53 306.695 258.205 278.015C273.548 249.505 288.219 235.17 302.217 235.011ZM315.274 353.37C313.293 355.06 311.259 359.417 309.173 366.44C307.086 373.465 306.06 378.56 306.096 381.727C306.148 386.226 307.757 388.458 310.923 388.422C313.256 388.395 316.147 386.112 319.595 381.572C321.074 379.722 322.304 377.875 323.283 376.03C324.26 374.019 324.911 372.678 325.237 372.008C322.705 369.203 320.505 366.228 318.635 363.082C316.766 359.937 315.645 356.699 315.274 353.37ZM376.55 352.673C374.569 354.362 372.535 358.719 370.448 365.743C368.361 372.767 367.336 377.863 367.372 381.029C367.423 385.529 369.032 387.761 372.198 387.725C374.531 387.698 377.422 385.415 380.871 380.875C382.35 379.025 383.579 377.178 384.558 375.333C385.535 373.322 386.187 371.981 386.512 371.311C383.98 368.506 381.78 365.53 379.911 362.385C378.042 359.239 376.921 356.002 376.55 352.673ZM325.612 339.001C322.446 339.037 320.897 342.139 320.967 348.305C320.998 350.971 321.618 354.214 322.828 358.034C324.205 361.852 325.572 364.837 326.93 366.988C328.229 363.973 329.194 360.878 329.825 357.704C330.455 354.53 330.749 351.11 330.708 347.444C330.643 341.778 328.945 338.963 325.612 339.001ZM386.887 338.304C383.721 338.34 382.173 341.441 382.243 347.607C382.273 350.274 382.893 353.517 384.103 357.337C385.48 361.155 386.848 364.14 388.206 366.291C389.505 363.276 390.47 360.182 391.1 357.008C391.731 353.834 392.025 350.413 391.983 346.747C391.919 341.081 390.22 338.266 386.887 338.304ZM113.847 314.909C112.524 315.758 111.2 316.689 109.879 317.704C108.722 318.551 107.566 319.564 106.413 320.744C105.644 326.42 104.381 332.601 102.624 339.288C100.866 345.975 98.5304 353.087 95.6159 360.62C95.9568 361.283 96.2152 362.03 96.3913 362.861C96.7322 363.524 97.0749 364.27 97.4177 365.1L97.6589 364.347C98.4713 362.504 100.248 357.484 102.988 349.285C105.726 340.92 109.346 329.461 113.847 314.909ZM297.542 241.565C287.209 241.683 275.629 256.649 262.801 286.463C256.801 301.199 252.203 314.585 249.007 326.622C245.977 338.657 244.517 349.508 244.627 359.174C253.526 350.239 265.076 332.606 279.277 306.276C294.293 278.271 301.741 259.018 301.622 248.519C301.569 243.852 300.208 241.534 297.542 241.565ZM134.028 259.302C126.081 268.775 116.483 274.655 105.233 276.939C104.226 277.143 103.203 277.317 102.168 277.463C103.65 280.656 104.774 284.085 105.538 287.752C106.763 292.905 107.413 298.732 107.487 305.232C107.533 309.231 107.329 313.4 106.879 317.738C108.197 316.39 109.516 315.125 110.836 313.943C112.322 312.76 113.727 311.661 115.049 310.646C121.599 290.452 127.926 273.338 134.028 259.302ZM146.509 241.033C143.746 247.232 140.425 255.686 136.547 266.398C132.835 277.107 128.649 290.156 123.991 305.543C128.964 303.153 141.339 299.346 161.114 294.12C186.701 286.995 199.435 278.183 199.315 267.684C199.23 260.184 191.069 253.443 174.834 247.461C172.058 246.533 169.14 245.676 166.08 244.886C165.55 251.745 165.242 258.204 165.159 264.263C165.084 272.271 165.318 279.707 165.861 286.569C165.8 287.942 165.524 288.678 165.034 288.777C164.544 288.877 164.101 288.372 163.706 287.262C163.573 286.608 163.422 285.449 163.254 283.782C163.282 282.246 163.228 280.301 163.091 277.948C162.647 271.576 162.497 264.973 162.64 258.142C162.761 253.61 162.934 248.95 163.159 244.161C157.992 242.935 152.442 241.891 146.509 241.033ZM94.8933 210.926C84.1316 208.179 73.5235 207.866 63.07 209.988C41.9558 214.275 29.7918 224.427 26.5778 240.444C32.6417 237.342 40.5032 234.904 50.1628 233.129C58.3137 231.703 66.7183 230.607 75.3767 229.842C84.2 228.908 93.2783 228.388 102.611 228.281C110.944 228.186 118.864 228.43 126.371 229.011C131.146 229.275 135.855 229.675 140.498 230.21C140.779 229.244 141.056 228.263 141.322 227.266C123.65 219.799 108.174 214.352 94.8933 210.926ZM165.874 213.203C163.144 215.521 160.493 218.369 157.92 221.746C157.971 221.772 158.022 221.798 158.074 221.824C159.973 222.799 162.166 223.969 164.654 225.335L166.041 213.318C165.984 213.281 165.929 213.241 165.874 213.203ZM170.133 186.979C166.572 187.871 163.142 188.568 159.842 189.067C158.683 195.085 157.523 200.678 156.361 205.846C155.166 210.85 154.051 215.413 153.017 219.534C153.903 219.866 154.865 220.274 155.904 220.759C158.664 217.344 161.456 214.372 164.278 211.845C163.961 211.499 163.695 211.144 163.484 210.776C162.959 209.863 162.548 209.096 162.252 208.476C161.987 207.169 162.324 205.06 163.263 202.148C164.333 199.04 165.929 197.27 168.052 196.839L168.298 196.789C168.686 195.35 168.976 193.846 169.168 192.276C169.489 190.511 169.811 188.744 170.133 186.979ZM446.45 143.384C443.183 144.047 439.252 146.885 434.658 151.899C430.715 155.931 427.72 160.026 425.673 164.183C420.863 174.002 419.088 182.016 420.348 188.223C421.542 194.103 424.508 196.562 429.245 195.601C432.021 195.037 434.729 193.296 437.368 190.38C445.446 180.747 448.817 165.097 447.479 143.43C446.99 143.529 446.646 143.514 446.45 143.384ZM230.403 72.9581C225.881 69.1143 220.517 67.8221 214.31 69.0821C206.307 70.7068 198.479 76.5478 190.827 86.6046C183.142 96.498 176.744 111.062 171.635 130.296C170.698 134.058 169.279 140.469 167.377 149.528C165.605 158.391 163.431 169.887 160.857 184.015C162.621 183.487 164.385 182.958 166.148 182.43C167.912 181.902 169.594 181.39 171.194 180.896C172.935 172.719 174.79 164.264 176.759 155.531C178.89 146.765 181.169 137.884 183.594 128.889C191.782 100.526 198.293 85.6838 203.127 84.3624C204.27 84.1303 204.958 84.5863 205.19 85.7296C205.323 86.3828 205.112 87.021 204.558 87.6436C199.9 93.181 195.044 103.606 189.989 118.917C185.098 134.196 180.171 154.329 175.21 179.315C201.066 168.454 220.201 150.879 232.617 126.59C239.573 113.103 241.907 100.724 239.619 89.4542C238.16 82.2676 235.088 76.7687 230.403 72.9581Z" fill="#FADADD"/>
</g>
<defs>
<filter id="filter0_d_3_55" x="34.811" y="7.75439" width="492.098" height="500.823" filterUnits="userSpaceOnUse" color-interpolation-filters="sRGB">
<feFlood flood-opacity="0" result="BackgroundImageFix"/>
<feColorMatrix in="SourceAlpha" type="matrix" values="0 0 0 0 0 0 0 0 0 0 0 0 0 0 0 0 0 0 127 0" result="hardAlpha"/>
<feOffset dy="4"/>
<feGaussianBlur stdDeviation="2"/>
<feComposite in2="hardAlpha" operator="out"/>
<feColorMatrix type="matrix" values="0 0 0 0 0 0 0 0 0 0 0 0 0 0 0 0 0 0 0.25 0"/>
<feBlend mode="normal" in2="BackgroundImageFix" result="effect1_dropShadow_3_55"/>
<feBlend mode="normal" in="SourceGraphic" in2="effect1_dropShadow_3_55" result="shape"/>
</filter>
<filter id="filter1_d_3_55" x="34.811" y="0.754395" width="492.098" height="500.823" filterUnits="userSpaceOnUse" color-interpolation-filters="sRGB">
<feFlood flood-opacity="0" result="BackgroundImageFix"/>
<feColorMatrix in="SourceAlpha" type="matrix" values="0 0 0 0 0 0 0 0 0 0 0 0 0 0 0 0 0 0 127 0" result="hardAlpha"/>
<feOffset dy="4"/>
<feGaussianBlur stdDeviation="2"/>
<feComposite in2="hardAlpha" operator="out"/>
<feColorMatrix type="matrix" values="0 0 0 0 0 0 0 0 0 0 0 0 0 0 0 0 0 0 0.25 0"/>
<feBlend mode="normal" in2="BackgroundImageFix" result="effect1_dropShadow_3_55"/>
<feBlend mode="normal" in="SourceGraphic" in2="effect1_dropShadow_3_55" result="shape"/>
</filter>
<filter id="filter2_dd_3_55" x="0.237549" y="65" width="537.707" height="374.477" filterUnits="userSpaceOnUse" color-interpolation-filters="sRGB">
<feFlood flood-opacity="0" result="BackgroundImageFix"/>
<feColorMatrix in="SourceAlpha" type="matrix" values="0 0 0 0 0 0 0 0 0 0 0 0 0 0 0 0 0 0 127 0" result="hardAlpha"/>
<feOffset dy="4"/>
<feGaussianBlur stdDeviation="2"/>
<feComposite in2="hardAlpha" operator="out"/>
<feColorMatrix type="matrix" values="0 0 0 0 0 0 0 0 0 0 0 0 0 0 0 0 0 0 0.25 0"/>
<feBlend mode="normal" in2="BackgroundImageFix" result="effect1_dropShadow_3_55"/>
<feColorMatrix in="SourceAlpha" type="matrix" values="0 0 0 0 0 0 0 0 0 0 0 0 0 0 0 0 0 0 127 0" result="hardAlpha"/>
<feOffset dy="4"/>
<feGaussianBlur stdDeviation="2"/>
<feComposite in2="hardAlpha" operator="out"/>
<feColorMatrix type="matrix" values="0 0 0 0 0 0 0 0 0 0 0 0 0 0 0 0 0 0 0.25 0"/>
<feBlend mode="normal" in2="effect1_dropShadow_3_55" result="effect2_dropShadow_3_55"/>
<feBlend mode="normal" in="SourceGraphic" in2="effect2_dropShadow_3_55" result="shape"/>
</filter>
<filter id="filter3_dd_3_55" x="7.23743" y="65.0005" width="537.707" height="374.477" filterUnits="userSpaceOnUse" color-interpolation-filters="sRGB">
<feFlood flood-opacity="0" result="BackgroundImageFix"/>
<feColorMatrix in="SourceAlpha" type="matrix" values="0 0 0 0 0 0 0 0 0 0 0 0 0 0 0 0 0 0 127 0" result="hardAlpha"/>
<feOffset dy="4"/>
<feGaussianBlur stdDeviation="2"/>
<feComposite in2="hardAlpha" operator="out"/>
<feColorMatrix type="matrix" values="0 0 0 0 0 0 0 0 0 0 0 0 0 0 0 0 0 0 0.25 0"/>
<feBlend mode="normal" in2="BackgroundImageFix" result="effect1_dropShadow_3_55"/>
<feColorMatrix in="SourceAlpha" type="matrix" values="0 0 0 0 0 0 0 0 0 0 0 0 0 0 0 0 0 0 127 0" result="hardAlpha"/>
<feOffset dy="4"/>
<feGaussianBlur stdDeviation="2"/>
<feComposite in2="hardAlpha" operator="out"/>
<feColorMatrix type="matrix" values="0 0 0 0 0 0 0 0 0 0 0 0 0 0 0 0 0 0 0.25 0"/>
<feBlend mode="normal" in2="effect1_dropShadow_3_55" result="effect2_dropShadow_3_55"/>
<feBlend mode="normal" in="SourceGraphic" in2="effect2_dropShadow_3_55" result="shape"/>
</filter>
</defs>
</svg>
